<mxfile host="Electron" agent="Mozilla/5.0 (Windows NT 10.0; Win64; x64) AppleWebKit/537.36 (KHTML, like Gecko) draw.io/24.7.8 Chrome/128.0.6613.36 Electron/32.0.1 Safari/537.36" version="24.7.8">
  <diagram name="第 1 页" id="Y4O-mTKqdZCqSZXgSddL">
    <mxGraphModel dx="830" dy="478" grid="1" gridSize="10" guides="1" tooltips="1" connect="1" arrows="1" fold="1" page="1" pageScale="1" pageWidth="827" pageHeight="1169" math="0" shadow="0">
      <root>
        <mxCell id="0" />
        <mxCell id="1" parent="0" />
        <mxCell id="lT1IOfQpuZ91vc7HAV41-1" value="1" style="ellipse;whiteSpace=wrap;html=1;aspect=fixed;sketch=1;curveFitting=1;jiggle=2;" vertex="1" parent="1">
          <mxGeometry x="170" y="80" width="40" height="40" as="geometry" />
        </mxCell>
        <mxCell id="lT1IOfQpuZ91vc7HAV41-2" value="4" style="ellipse;whiteSpace=wrap;html=1;aspect=fixed;sketch=1;curveFitting=1;jiggle=2;" vertex="1" parent="1">
          <mxGeometry x="10" y="320" width="40" height="40" as="geometry" />
        </mxCell>
        <mxCell id="lT1IOfQpuZ91vc7HAV41-3" value="8" style="ellipse;whiteSpace=wrap;html=1;aspect=fixed;sketch=1;curveFitting=1;jiggle=2;" vertex="1" parent="1">
          <mxGeometry x="250" y="320" width="40" height="40" as="geometry" />
        </mxCell>
        <mxCell id="lT1IOfQpuZ91vc7HAV41-4" value="2" style="ellipse;whiteSpace=wrap;html=1;aspect=fixed;sketch=1;curveFitting=1;jiggle=2;" vertex="1" parent="1">
          <mxGeometry x="90" y="160" width="40" height="40" as="geometry" />
        </mxCell>
        <mxCell id="lT1IOfQpuZ91vc7HAV41-5" value="6" style="ellipse;whiteSpace=wrap;html=1;aspect=fixed;sketch=1;curveFitting=1;jiggle=2;" vertex="1" parent="1">
          <mxGeometry x="250" y="160" width="40" height="40" as="geometry" />
        </mxCell>
        <mxCell id="lT1IOfQpuZ91vc7HAV41-6" value="5" style="ellipse;whiteSpace=wrap;html=1;aspect=fixed;sketch=1;curveFitting=1;jiggle=2;" vertex="1" parent="1">
          <mxGeometry x="140" y="240" width="40" height="40" as="geometry" />
        </mxCell>
        <mxCell id="lT1IOfQpuZ91vc7HAV41-7" value="7" style="ellipse;whiteSpace=wrap;html=1;aspect=fixed;sketch=1;curveFitting=1;jiggle=2;" vertex="1" parent="1">
          <mxGeometry x="290" y="240" width="40" height="40" as="geometry" />
        </mxCell>
        <mxCell id="lT1IOfQpuZ91vc7HAV41-8" value="3" style="ellipse;whiteSpace=wrap;html=1;aspect=fixed;sketch=1;curveFitting=1;jiggle=2;" vertex="1" parent="1">
          <mxGeometry x="50" y="240" width="40" height="40" as="geometry" />
        </mxCell>
        <mxCell id="lT1IOfQpuZ91vc7HAV41-9" value="9" style="ellipse;whiteSpace=wrap;html=1;aspect=fixed;sketch=1;curveFitting=1;jiggle=2;" vertex="1" parent="1">
          <mxGeometry x="330" y="320" width="40" height="40" as="geometry" />
        </mxCell>
        <mxCell id="lT1IOfQpuZ91vc7HAV41-11" value="" style="endArrow=classic;html=1;rounded=0;exitX=0;exitY=1;exitDx=0;exitDy=0;entryX=0.92;entryY=0.24;entryDx=0;entryDy=0;entryPerimeter=0;sketch=1;curveFitting=1;jiggle=2;" edge="1" parent="1" source="lT1IOfQpuZ91vc7HAV41-1" target="lT1IOfQpuZ91vc7HAV41-4">
          <mxGeometry width="50" height="50" relative="1" as="geometry">
            <mxPoint x="330" y="240" as="sourcePoint" />
            <mxPoint x="380" y="190" as="targetPoint" />
          </mxGeometry>
        </mxCell>
        <mxCell id="lT1IOfQpuZ91vc7HAV41-12" value="" style="endArrow=classic;html=1;rounded=0;exitX=0.93;exitY=0.89;exitDx=0;exitDy=0;entryX=0.08;entryY=0.24;entryDx=0;entryDy=0;entryPerimeter=0;sketch=1;curveFitting=1;jiggle=2;exitPerimeter=0;" edge="1" parent="1" source="lT1IOfQpuZ91vc7HAV41-1" target="lT1IOfQpuZ91vc7HAV41-5">
          <mxGeometry width="50" height="50" relative="1" as="geometry">
            <mxPoint x="186" y="124" as="sourcePoint" />
            <mxPoint x="137" y="180" as="targetPoint" />
          </mxGeometry>
        </mxCell>
        <mxCell id="lT1IOfQpuZ91vc7HAV41-13" value="" style="endArrow=classic;html=1;rounded=0;exitX=0;exitY=1;exitDx=0;exitDy=0;entryX=0.71;entryY=0.08;entryDx=0;entryDy=0;entryPerimeter=0;sketch=1;curveFitting=1;jiggle=2;" edge="1" parent="1" source="lT1IOfQpuZ91vc7HAV41-4" target="lT1IOfQpuZ91vc7HAV41-8">
          <mxGeometry width="50" height="50" relative="1" as="geometry">
            <mxPoint x="217" y="126" as="sourcePoint" />
            <mxPoint x="263" y="180" as="targetPoint" />
          </mxGeometry>
        </mxCell>
        <mxCell id="lT1IOfQpuZ91vc7HAV41-14" value="" style="endArrow=classic;html=1;rounded=0;exitX=0.92;exitY=0.84;exitDx=0;exitDy=0;entryX=0.37;entryY=0.04;entryDx=0;entryDy=0;entryPerimeter=0;sketch=1;curveFitting=1;jiggle=2;exitPerimeter=0;" edge="1" parent="1" source="lT1IOfQpuZ91vc7HAV41-4" target="lT1IOfQpuZ91vc7HAV41-6">
          <mxGeometry width="50" height="50" relative="1" as="geometry">
            <mxPoint x="227" y="136" as="sourcePoint" />
            <mxPoint x="273" y="190" as="targetPoint" />
          </mxGeometry>
        </mxCell>
        <mxCell id="lT1IOfQpuZ91vc7HAV41-15" value="" style="endArrow=classic;html=1;rounded=0;exitX=1;exitY=1;exitDx=0;exitDy=0;entryX=0.37;entryY=0.04;entryDx=0;entryDy=0;entryPerimeter=0;sketch=1;curveFitting=1;jiggle=2;" edge="1" parent="1" source="lT1IOfQpuZ91vc7HAV41-5" target="lT1IOfQpuZ91vc7HAV41-7">
          <mxGeometry width="50" height="50" relative="1" as="geometry">
            <mxPoint x="137" y="204" as="sourcePoint" />
            <mxPoint x="165" y="252" as="targetPoint" />
          </mxGeometry>
        </mxCell>
        <mxCell id="lT1IOfQpuZ91vc7HAV41-16" value="" style="endArrow=classic;html=1;rounded=0;exitX=0.31;exitY=0.98;exitDx=0;exitDy=0;entryX=0.7;entryY=0.05;entryDx=0;entryDy=0;entryPerimeter=0;sketch=1;curveFitting=1;jiggle=2;exitPerimeter=0;" edge="1" parent="1" source="lT1IOfQpuZ91vc7HAV41-8" target="lT1IOfQpuZ91vc7HAV41-2">
          <mxGeometry width="50" height="50" relative="1" as="geometry">
            <mxPoint x="106" y="204" as="sourcePoint" />
            <mxPoint x="88" y="253" as="targetPoint" />
          </mxGeometry>
        </mxCell>
        <mxCell id="lT1IOfQpuZ91vc7HAV41-17" value="" style="endArrow=classic;html=1;rounded=0;exitX=0;exitY=1;exitDx=0;exitDy=0;entryX=0.5;entryY=0;entryDx=0;entryDy=0;sketch=1;curveFitting=1;jiggle=2;" edge="1" parent="1" source="lT1IOfQpuZ91vc7HAV41-7" target="lT1IOfQpuZ91vc7HAV41-3">
          <mxGeometry width="50" height="50" relative="1" as="geometry">
            <mxPoint x="264" y="270" as="sourcePoint" />
            <mxPoint x="240" y="313" as="targetPoint" />
          </mxGeometry>
        </mxCell>
        <mxCell id="lT1IOfQpuZ91vc7HAV41-18" value="" style="endArrow=classic;html=1;rounded=0;exitX=0.75;exitY=1;exitDx=0;exitDy=0;entryX=0.51;entryY=0.08;entryDx=0;entryDy=0;entryPerimeter=0;sketch=1;curveFitting=1;jiggle=2;exitPerimeter=0;" edge="1" parent="1" source="lT1IOfQpuZ91vc7HAV41-7" target="lT1IOfQpuZ91vc7HAV41-9">
          <mxGeometry width="50" height="50" relative="1" as="geometry">
            <mxPoint x="82" y="299" as="sourcePoint" />
            <mxPoint x="58" y="342" as="targetPoint" />
          </mxGeometry>
        </mxCell>
        <mxCell id="lT1IOfQpuZ91vc7HAV41-27" value="9" style="ellipse;whiteSpace=wrap;html=1;aspect=fixed;sketch=1;curveFitting=1;jiggle=2;fillColor=#60a917;fontColor=#ffffff;strokeColor=#2D7600;" vertex="1" parent="1">
          <mxGeometry x="717" y="80" width="40" height="40" as="geometry" />
        </mxCell>
        <mxCell id="lT1IOfQpuZ91vc7HAV41-36" value="8" style="ellipse;whiteSpace=wrap;html=1;aspect=fixed;sketch=1;curveFitting=1;jiggle=2;fillColor=#d80073;fontColor=#ffffff;strokeColor=#A50040;" vertex="1" parent="1">
          <mxGeometry x="677" y="120" width="40" height="40" as="geometry" />
        </mxCell>
        <mxCell id="lT1IOfQpuZ91vc7HAV41-37" value="9" style="ellipse;whiteSpace=wrap;html=1;aspect=fixed;sketch=1;curveFitting=1;jiggle=2;fillColor=#60a917;fontColor=#ffffff;strokeColor=#2D7600;" vertex="1" parent="1">
          <mxGeometry x="720" y="120" width="40" height="40" as="geometry" />
        </mxCell>
        <mxCell id="lT1IOfQpuZ91vc7HAV41-38" value="8" style="ellipse;whiteSpace=wrap;html=1;aspect=fixed;sketch=1;curveFitting=1;jiggle=2;fillColor=#1ba1e2;fontColor=#ffffff;strokeColor=#006EAF;" vertex="1" parent="1">
          <mxGeometry x="677" y="160" width="40" height="40" as="geometry" />
        </mxCell>
        <mxCell id="lT1IOfQpuZ91vc7HAV41-39" value="9" style="ellipse;whiteSpace=wrap;html=1;aspect=fixed;sketch=1;curveFitting=1;jiggle=2;fillColor=#1ba1e2;fontColor=#ffffff;strokeColor=#006EAF;" vertex="1" parent="1">
          <mxGeometry x="720" y="160" width="40" height="40" as="geometry" />
        </mxCell>
        <mxCell id="lT1IOfQpuZ91vc7HAV41-40" value="7" style="ellipse;whiteSpace=wrap;html=1;aspect=fixed;sketch=1;curveFitting=1;jiggle=2;fillColor=#1ba1e2;fontColor=#ffffff;strokeColor=#006EAF;" vertex="1" parent="1">
          <mxGeometry x="637" y="160" width="40" height="40" as="geometry" />
        </mxCell>
        <mxCell id="lT1IOfQpuZ91vc7HAV41-41" value="empty" style="ellipse;whiteSpace=wrap;html=1;aspect=fixed;sketch=1;curveFitting=1;jiggle=2;" vertex="1" parent="1">
          <mxGeometry x="760" y="80" width="40" height="40" as="geometry" />
        </mxCell>
        <mxCell id="lT1IOfQpuZ91vc7HAV41-42" value="empty" style="ellipse;whiteSpace=wrap;html=1;aspect=fixed;sketch=1;curveFitting=1;jiggle=2;" vertex="1" parent="1">
          <mxGeometry x="760" y="120" width="40" height="40" as="geometry" />
        </mxCell>
        <mxCell id="lT1IOfQpuZ91vc7HAV41-43" value="empty" style="ellipse;whiteSpace=wrap;html=1;aspect=fixed;sketch=1;curveFitting=1;jiggle=2;" vertex="1" parent="1">
          <mxGeometry x="760" y="160" width="40" height="40" as="geometry" />
        </mxCell>
        <mxCell id="lT1IOfQpuZ91vc7HAV41-44" value="6" style="ellipse;whiteSpace=wrap;html=1;aspect=fixed;sketch=1;curveFitting=1;jiggle=2;fillColor=#1ba1e2;fontColor=#ffffff;strokeColor=#006EAF;" vertex="1" parent="1">
          <mxGeometry x="597" y="200" width="40" height="40" as="geometry" />
        </mxCell>
        <mxCell id="lT1IOfQpuZ91vc7HAV41-45" value="8" style="ellipse;whiteSpace=wrap;html=1;aspect=fixed;sketch=1;curveFitting=1;jiggle=2;fillColor=#1ba1e2;fontColor=#ffffff;strokeColor=#006EAF;" vertex="1" parent="1">
          <mxGeometry x="677" y="200" width="40" height="40" as="geometry" />
        </mxCell>
        <mxCell id="lT1IOfQpuZ91vc7HAV41-46" value="9" style="ellipse;whiteSpace=wrap;html=1;aspect=fixed;sketch=1;curveFitting=1;jiggle=2;fillColor=#1ba1e2;fontColor=#ffffff;strokeColor=#006EAF;" vertex="1" parent="1">
          <mxGeometry x="720" y="200" width="40" height="40" as="geometry" />
        </mxCell>
        <mxCell id="lT1IOfQpuZ91vc7HAV41-47" value="7" style="ellipse;whiteSpace=wrap;html=1;aspect=fixed;sketch=1;curveFitting=1;jiggle=2;fillColor=#1ba1e2;fontColor=#ffffff;strokeColor=#006EAF;" vertex="1" parent="1">
          <mxGeometry x="637" y="200" width="40" height="40" as="geometry" />
        </mxCell>
        <mxCell id="lT1IOfQpuZ91vc7HAV41-48" value="empty" style="ellipse;whiteSpace=wrap;html=1;aspect=fixed;sketch=1;curveFitting=1;jiggle=2;" vertex="1" parent="1">
          <mxGeometry x="760" y="200" width="40" height="40" as="geometry" />
        </mxCell>
        <mxCell id="lT1IOfQpuZ91vc7HAV41-49" value="5" style="ellipse;whiteSpace=wrap;html=1;aspect=fixed;sketch=1;curveFitting=1;jiggle=2;fillColor=#6a00ff;fontColor=#ffffff;strokeColor=#3700CC;" vertex="1" parent="1">
          <mxGeometry x="557" y="240" width="40" height="40" as="geometry" />
        </mxCell>
        <mxCell id="lT1IOfQpuZ91vc7HAV41-50" value="6" style="ellipse;whiteSpace=wrap;html=1;aspect=fixed;sketch=1;curveFitting=1;jiggle=2;fillColor=#1ba1e2;fontColor=#ffffff;strokeColor=#006EAF;" vertex="1" parent="1">
          <mxGeometry x="597" y="240" width="40" height="40" as="geometry" />
        </mxCell>
        <mxCell id="lT1IOfQpuZ91vc7HAV41-51" value="8" style="ellipse;whiteSpace=wrap;html=1;aspect=fixed;sketch=1;curveFitting=1;jiggle=2;fillColor=#1ba1e2;fontColor=#ffffff;strokeColor=#006EAF;" vertex="1" parent="1">
          <mxGeometry x="677" y="240" width="40" height="40" as="geometry" />
        </mxCell>
        <mxCell id="lT1IOfQpuZ91vc7HAV41-52" value="9" style="ellipse;whiteSpace=wrap;html=1;aspect=fixed;sketch=1;curveFitting=1;jiggle=2;fillColor=#1ba1e2;fontColor=#ffffff;strokeColor=#006EAF;" vertex="1" parent="1">
          <mxGeometry x="720" y="240" width="40" height="40" as="geometry" />
        </mxCell>
        <mxCell id="lT1IOfQpuZ91vc7HAV41-53" value="7" style="ellipse;whiteSpace=wrap;html=1;aspect=fixed;sketch=1;curveFitting=1;jiggle=2;fillColor=#1ba1e2;fontColor=#ffffff;strokeColor=#006EAF;" vertex="1" parent="1">
          <mxGeometry x="637" y="240" width="40" height="40" as="geometry" />
        </mxCell>
        <mxCell id="lT1IOfQpuZ91vc7HAV41-54" value="empty" style="ellipse;whiteSpace=wrap;html=1;aspect=fixed;sketch=1;curveFitting=1;jiggle=2;" vertex="1" parent="1">
          <mxGeometry x="760" y="240" width="40" height="40" as="geometry" />
        </mxCell>
        <mxCell id="lT1IOfQpuZ91vc7HAV41-55" value="4" style="ellipse;whiteSpace=wrap;html=1;aspect=fixed;sketch=1;curveFitting=1;jiggle=2;fillColor=#a20025;fontColor=#ffffff;strokeColor=#6F0000;" vertex="1" parent="1">
          <mxGeometry x="517" y="280" width="40" height="40" as="geometry" />
        </mxCell>
        <mxCell id="lT1IOfQpuZ91vc7HAV41-56" value="5" style="ellipse;whiteSpace=wrap;html=1;aspect=fixed;sketch=1;curveFitting=1;jiggle=2;fillColor=#6a00ff;fontColor=#ffffff;strokeColor=#3700CC;" vertex="1" parent="1">
          <mxGeometry x="557" y="280" width="40" height="40" as="geometry" />
        </mxCell>
        <mxCell id="lT1IOfQpuZ91vc7HAV41-57" value="6" style="ellipse;whiteSpace=wrap;html=1;aspect=fixed;sketch=1;curveFitting=1;jiggle=2;fillColor=#1ba1e2;fontColor=#ffffff;strokeColor=#006EAF;" vertex="1" parent="1">
          <mxGeometry x="597" y="280" width="40" height="40" as="geometry" />
        </mxCell>
        <mxCell id="lT1IOfQpuZ91vc7HAV41-58" value="8" style="ellipse;whiteSpace=wrap;html=1;aspect=fixed;sketch=1;curveFitting=1;jiggle=2;fillColor=#1ba1e2;fontColor=#ffffff;strokeColor=#006EAF;" vertex="1" parent="1">
          <mxGeometry x="677" y="280" width="40" height="40" as="geometry" />
        </mxCell>
        <mxCell id="lT1IOfQpuZ91vc7HAV41-59" value="9" style="ellipse;whiteSpace=wrap;html=1;aspect=fixed;sketch=1;curveFitting=1;jiggle=2;fillColor=#1ba1e2;fontColor=#ffffff;strokeColor=#006EAF;" vertex="1" parent="1">
          <mxGeometry x="720" y="280" width="40" height="40" as="geometry" />
        </mxCell>
        <mxCell id="lT1IOfQpuZ91vc7HAV41-60" value="7" style="ellipse;whiteSpace=wrap;html=1;aspect=fixed;sketch=1;curveFitting=1;jiggle=2;fillColor=#1ba1e2;fontColor=#ffffff;strokeColor=#006EAF;" vertex="1" parent="1">
          <mxGeometry x="637" y="280" width="40" height="40" as="geometry" />
        </mxCell>
        <mxCell id="lT1IOfQpuZ91vc7HAV41-61" value="empty" style="ellipse;whiteSpace=wrap;html=1;aspect=fixed;sketch=1;curveFitting=1;jiggle=2;" vertex="1" parent="1">
          <mxGeometry x="760" y="280" width="40" height="40" as="geometry" />
        </mxCell>
        <mxCell id="lT1IOfQpuZ91vc7HAV41-62" value="3" style="ellipse;whiteSpace=wrap;html=1;aspect=fixed;sketch=1;curveFitting=1;jiggle=2;fillColor=#a20025;fontColor=#ffffff;strokeColor=#6F0000;" vertex="1" parent="1">
          <mxGeometry x="477" y="320" width="40" height="40" as="geometry" />
        </mxCell>
        <mxCell id="lT1IOfQpuZ91vc7HAV41-63" value="4" style="ellipse;whiteSpace=wrap;html=1;aspect=fixed;sketch=1;curveFitting=1;jiggle=2;fillColor=#a20025;fontColor=#ffffff;strokeColor=#6F0000;" vertex="1" parent="1">
          <mxGeometry x="517" y="320" width="40" height="40" as="geometry" />
        </mxCell>
        <mxCell id="lT1IOfQpuZ91vc7HAV41-64" value="5" style="ellipse;whiteSpace=wrap;html=1;aspect=fixed;sketch=1;curveFitting=1;jiggle=2;fillColor=#6a00ff;fontColor=#ffffff;strokeColor=#3700CC;" vertex="1" parent="1">
          <mxGeometry x="557" y="320" width="40" height="40" as="geometry" />
        </mxCell>
        <mxCell id="lT1IOfQpuZ91vc7HAV41-65" value="6" style="ellipse;whiteSpace=wrap;html=1;aspect=fixed;sketch=1;curveFitting=1;jiggle=2;fillColor=#1ba1e2;fontColor=#ffffff;strokeColor=#006EAF;" vertex="1" parent="1">
          <mxGeometry x="597" y="320" width="40" height="40" as="geometry" />
        </mxCell>
        <mxCell id="lT1IOfQpuZ91vc7HAV41-66" value="8" style="ellipse;whiteSpace=wrap;html=1;aspect=fixed;sketch=1;curveFitting=1;jiggle=2;fillColor=#1ba1e2;fontColor=#ffffff;strokeColor=#006EAF;" vertex="1" parent="1">
          <mxGeometry x="677" y="320" width="40" height="40" as="geometry" />
        </mxCell>
        <mxCell id="lT1IOfQpuZ91vc7HAV41-67" value="9" style="ellipse;whiteSpace=wrap;html=1;aspect=fixed;sketch=1;curveFitting=1;jiggle=2;fillColor=#1ba1e2;fontColor=#ffffff;strokeColor=#006EAF;" vertex="1" parent="1">
          <mxGeometry x="720" y="320" width="40" height="40" as="geometry" />
        </mxCell>
        <mxCell id="lT1IOfQpuZ91vc7HAV41-68" value="7" style="ellipse;whiteSpace=wrap;html=1;aspect=fixed;sketch=1;curveFitting=1;jiggle=2;fillColor=#1ba1e2;fontColor=#ffffff;strokeColor=#006EAF;" vertex="1" parent="1">
          <mxGeometry x="637" y="320" width="40" height="40" as="geometry" />
        </mxCell>
        <mxCell id="lT1IOfQpuZ91vc7HAV41-69" value="empty" style="ellipse;whiteSpace=wrap;html=1;aspect=fixed;sketch=1;curveFitting=1;jiggle=2;" vertex="1" parent="1">
          <mxGeometry x="760" y="320" width="40" height="40" as="geometry" />
        </mxCell>
        <mxCell id="lT1IOfQpuZ91vc7HAV41-70" value="2" style="ellipse;whiteSpace=wrap;html=1;aspect=fixed;sketch=1;curveFitting=1;jiggle=2;fillColor=#6a00ff;fontColor=#ffffff;strokeColor=#3700CC;" vertex="1" parent="1">
          <mxGeometry x="440" y="360" width="40" height="40" as="geometry" />
        </mxCell>
        <mxCell id="lT1IOfQpuZ91vc7HAV41-72" value="3" style="ellipse;whiteSpace=wrap;html=1;aspect=fixed;sketch=1;curveFitting=1;jiggle=2;fillColor=#6a00ff;fontColor=#ffffff;strokeColor=#3700CC;" vertex="1" parent="1">
          <mxGeometry x="480" y="360" width="40" height="40" as="geometry" />
        </mxCell>
        <mxCell id="lT1IOfQpuZ91vc7HAV41-73" value="4" style="ellipse;whiteSpace=wrap;html=1;aspect=fixed;sketch=1;curveFitting=1;jiggle=2;fillColor=#6a00ff;fontColor=#ffffff;strokeColor=#3700CC;" vertex="1" parent="1">
          <mxGeometry x="520" y="360" width="40" height="40" as="geometry" />
        </mxCell>
        <mxCell id="lT1IOfQpuZ91vc7HAV41-74" value="5" style="ellipse;whiteSpace=wrap;html=1;aspect=fixed;sketch=1;curveFitting=1;jiggle=2;fillColor=#6a00ff;fontColor=#ffffff;strokeColor=#3700CC;" vertex="1" parent="1">
          <mxGeometry x="560" y="360" width="40" height="40" as="geometry" />
        </mxCell>
        <mxCell id="lT1IOfQpuZ91vc7HAV41-75" value="6" style="ellipse;whiteSpace=wrap;html=1;aspect=fixed;sketch=1;curveFitting=1;jiggle=2;fillColor=#1ba1e2;fontColor=#ffffff;strokeColor=#006EAF;" vertex="1" parent="1">
          <mxGeometry x="600" y="360" width="40" height="40" as="geometry" />
        </mxCell>
        <mxCell id="lT1IOfQpuZ91vc7HAV41-76" value="8" style="ellipse;whiteSpace=wrap;html=1;aspect=fixed;sketch=1;curveFitting=1;jiggle=2;fillColor=#1ba1e2;fontColor=#ffffff;strokeColor=#006EAF;" vertex="1" parent="1">
          <mxGeometry x="680" y="360" width="40" height="40" as="geometry" />
        </mxCell>
        <mxCell id="lT1IOfQpuZ91vc7HAV41-77" value="9" style="ellipse;whiteSpace=wrap;html=1;aspect=fixed;sketch=1;curveFitting=1;jiggle=2;fillColor=#1ba1e2;fontColor=#ffffff;strokeColor=#006EAF;" vertex="1" parent="1">
          <mxGeometry x="723" y="360" width="40" height="40" as="geometry" />
        </mxCell>
        <mxCell id="lT1IOfQpuZ91vc7HAV41-78" value="7" style="ellipse;whiteSpace=wrap;html=1;aspect=fixed;sketch=1;curveFitting=1;jiggle=2;fillColor=#1ba1e2;fontColor=#ffffff;strokeColor=#006EAF;" vertex="1" parent="1">
          <mxGeometry x="640" y="360" width="40" height="40" as="geometry" />
        </mxCell>
        <mxCell id="lT1IOfQpuZ91vc7HAV41-79" value="empty" style="ellipse;whiteSpace=wrap;html=1;aspect=fixed;sketch=1;curveFitting=1;jiggle=2;" vertex="1" parent="1">
          <mxGeometry x="763" y="360" width="40" height="40" as="geometry" />
        </mxCell>
        <mxCell id="lT1IOfQpuZ91vc7HAV41-80" value="1" style="ellipse;whiteSpace=wrap;html=1;aspect=fixed;sketch=1;curveFitting=1;jiggle=2;fillColor=#1ba1e2;fontColor=#ffffff;strokeColor=#006EAF;" vertex="1" parent="1">
          <mxGeometry x="400" y="400" width="40" height="40" as="geometry" />
        </mxCell>
        <mxCell id="lT1IOfQpuZ91vc7HAV41-81" value="2" style="ellipse;whiteSpace=wrap;html=1;aspect=fixed;sketch=1;curveFitting=1;jiggle=2;fillColor=#1ba1e2;fontColor=#ffffff;strokeColor=#006EAF;" vertex="1" parent="1">
          <mxGeometry x="440" y="400" width="40" height="40" as="geometry" />
        </mxCell>
        <mxCell id="lT1IOfQpuZ91vc7HAV41-82" value="3" style="ellipse;whiteSpace=wrap;html=1;aspect=fixed;sketch=1;curveFitting=1;jiggle=2;fillColor=#1ba1e2;fontColor=#ffffff;strokeColor=#006EAF;" vertex="1" parent="1">
          <mxGeometry x="480" y="400" width="40" height="40" as="geometry" />
        </mxCell>
        <mxCell id="lT1IOfQpuZ91vc7HAV41-83" value="4" style="ellipse;whiteSpace=wrap;html=1;aspect=fixed;sketch=1;curveFitting=1;jiggle=2;fillColor=#1ba1e2;fontColor=#ffffff;strokeColor=#006EAF;" vertex="1" parent="1">
          <mxGeometry x="520" y="400" width="40" height="40" as="geometry" />
        </mxCell>
        <mxCell id="lT1IOfQpuZ91vc7HAV41-84" value="5" style="ellipse;whiteSpace=wrap;html=1;aspect=fixed;sketch=1;curveFitting=1;jiggle=2;fillColor=#1ba1e2;fontColor=#ffffff;strokeColor=#006EAF;" vertex="1" parent="1">
          <mxGeometry x="560" y="400" width="40" height="40" as="geometry" />
        </mxCell>
        <mxCell id="lT1IOfQpuZ91vc7HAV41-85" value="6" style="ellipse;whiteSpace=wrap;html=1;aspect=fixed;sketch=1;curveFitting=1;jiggle=2;fillColor=#1ba1e2;fontColor=#ffffff;strokeColor=#006EAF;" vertex="1" parent="1">
          <mxGeometry x="600" y="400" width="40" height="40" as="geometry" />
        </mxCell>
        <mxCell id="lT1IOfQpuZ91vc7HAV41-86" value="8" style="ellipse;whiteSpace=wrap;html=1;aspect=fixed;sketch=1;curveFitting=1;jiggle=2;fillColor=#1ba1e2;fontColor=#ffffff;strokeColor=#006EAF;" vertex="1" parent="1">
          <mxGeometry x="680" y="400" width="40" height="40" as="geometry" />
        </mxCell>
        <mxCell id="lT1IOfQpuZ91vc7HAV41-87" value="9" style="ellipse;whiteSpace=wrap;html=1;aspect=fixed;sketch=1;curveFitting=1;jiggle=2;fillColor=#1ba1e2;fontColor=#ffffff;strokeColor=#006EAF;" vertex="1" parent="1">
          <mxGeometry x="723" y="400" width="40" height="40" as="geometry" />
        </mxCell>
        <mxCell id="lT1IOfQpuZ91vc7HAV41-88" value="7" style="ellipse;whiteSpace=wrap;html=1;aspect=fixed;sketch=1;curveFitting=1;jiggle=2;fillColor=#1ba1e2;fontColor=#ffffff;strokeColor=#006EAF;" vertex="1" parent="1">
          <mxGeometry x="640" y="400" width="40" height="40" as="geometry" />
        </mxCell>
        <mxCell id="lT1IOfQpuZ91vc7HAV41-89" value="empty" style="ellipse;whiteSpace=wrap;html=1;aspect=fixed;sketch=1;curveFitting=1;jiggle=2;" vertex="1" parent="1">
          <mxGeometry x="763" y="400" width="40" height="40" as="geometry" />
        </mxCell>
      </root>
    </mxGraphModel>
  </diagram>
</mxfile>
